<svg width="27" height="27" viewBox="0 0 27 27" fill="none" xmlns="http://www.w3.org/2000/svg">
<path d="M12.3739 21.3749V22.4998C12.3739 22.7982 12.2554 23.0844 12.0444 23.2953C11.8335 23.5063 11.5473 23.6248 11.2489 23.6248H8.99896V24.7498C8.99896 25.3466 8.76191 25.9189 8.33996 26.3408C7.918 26.7628 7.34571 26.9998 6.74898 26.9998H2.24901C1.65227 26.9998 1.07998 26.7628 0.658029 26.3408C0.236075 25.9189 -0.000976562 25.3466 -0.000976562 24.7498V21.8406C-0.000849129 21.2439 0.236286 20.6717 0.658269 20.2499L9.36571 11.5424C8.8318 9.72947 8.88217 7.79444 9.50968 6.01172C10.1372 4.229 11.31 2.68906 12.8618 1.61026C14.4136 0.531463 16.2656 -0.0314448 18.1553 0.00135624C20.0449 0.0341573 21.8763 0.661002 23.3897 1.79301C24.9031 2.92501 26.0218 4.50472 26.587 6.30815C27.1523 8.11158 27.1355 10.0472 26.539 11.8405C25.9425 13.6339 24.7965 15.1939 23.2637 16.2994C21.7308 17.405 19.8888 17.9999 17.9989 17.9999H15.7467V20.2499C15.7467 20.5482 15.6281 20.8344 15.4172 21.0454C15.2062 21.2563 14.92 21.3749 14.6217 21.3749H12.3717H12.3739ZM20.2489 8.99994C20.8456 8.99994 21.4179 8.76289 21.8399 8.34093C22.2618 7.91898 22.4989 7.34669 22.4989 6.74995C22.4989 6.15322 22.2618 5.58093 21.8399 5.15898C21.4179 4.73702 20.8456 4.49997 20.2489 4.49997C19.6522 4.49997 19.0799 4.73702 18.6579 5.15898C18.236 5.58093 17.9989 6.15322 17.9989 6.74995C17.9989 7.34669 18.236 7.91898 18.6579 8.34093C19.0799 8.76289 19.6522 8.99994 20.2489 8.99994Z" fill="#E6E6E6"/>
</svg>
