<svg width="36" height="36" viewBox="0 0 36 36" fill="none" xmlns="http://www.w3.org/2000/svg">
<path d="M18 1C8.61572 1 1 8.61572 1 18C1 27.3843 8.61572 35 18 35C27.3843 35 35 27.3843 35 18C35 8.61572 27.3843 1 18 1ZM18 7.8C20.1037 7.8 21.8 9.49628 21.8 11.6C21.8 13.7037 20.1037 15.4 18 15.4C15.8963 15.4 14.2 13.7037 14.2 11.6C14.2 9.49628 15.8963 7.8 18 7.8ZM18 28.52C14.4749 28.52 11.3427 26.7782 9.43284 24.1046C9.51162 23.7497 9.73564 23.3765 10.1541 22.9844C10.6876 22.4844 11.4681 22.0239 12.4039 21.6326C14.2794 20.8481 16.5365 20.44 18 20.44C19.4552 20.44 21.7124 20.848 23.5905 21.6327C24.5274 22.0242 25.3095 22.4848 25.8444 22.9851C26.2638 23.3774 26.4881 23.7504 26.5671 24.1047C24.6572 26.7783 21.525 28.52 18 28.52Z" stroke="#E6E6E6" stroke-width="2"/>
</svg>
